<?xml version="1.0" encoding="UTF-8"?>
<svg xmlns="http://www.w3.org/2000/svg" xmlns:xlink="http://www.w3.org/1999/xlink"
     width="3780" height="1417" viewBox="0 -1417 3780 1417">

<rect x="0" y="-1417" width="23" height="1417" fill="#2171b5"/>
<rect x="22.367" y="-1417" width="45" height="1417" fill="#6baed6"/>
<rect x="67.101" y="-1417" width="68" height="1417" fill="#4292c6"/>
<rect x="134.201" y="-1417" width="23" height="1417" fill="#2171b5"/>
<rect x="156.568" y="-1417" width="45" height="1417" fill="#08519c"/>
<rect x="201.302" y="-1417" width="23" height="1417" fill="#4292c6"/>
<rect x="223.669" y="-1417" width="45" height="1417" fill="#2171b5"/>
<rect x="268.402" y="-1417" width="23" height="1417" fill="#08306b"/>
<rect x="290.769" y="-1417" width="23" height="1417" fill="#4292c6"/>
<rect x="313.136" y="-1417" width="23" height="1417" fill="#08519c"/>
<rect x="335.503" y="-1417" width="68" height="1417" fill="#4292c6"/>
<rect x="402.604" y="-1417" width="23" height="1417" fill="#6baed6"/>
<rect x="424.97" y="-1417" width="45" height="1417" fill="#4292c6"/>
<rect x="469.704" y="-1417" width="23" height="1417" fill="#2171b5"/>
<rect x="492.071" y="-1417" width="23" height="1417" fill="#6baed6"/>
<rect x="514.438" y="-1417" width="23" height="1417" fill="#4292c6"/>
<rect x="536.805" y="-1417" width="68" height="1417" fill="#2171b5"/>
<rect x="603.905" y="-1417" width="23" height="1417" fill="#9ecae1"/>
<rect x="626.272" y="-1417" width="23" height="1417" fill="#c6dbef"/>
<rect x="648.639" y="-1417" width="23" height="1417" fill="#6baed6"/>
<rect x="671.006" y="-1417" width="23" height="1417" fill="#4292c6"/>
<rect x="693.373" y="-1417" width="45" height="1417" fill="#6baed6"/>
<rect x="738.107" y="-1417" width="23" height="1417" fill="#4292c6"/>
<rect x="760.473" y="-1417" width="90" height="1417" fill="#2171b5"/>
<rect x="849.941" y="-1417" width="23" height="1417" fill="#4292c6"/>
<rect x="872.308" y="-1417" width="23" height="1417" fill="#6baed6"/>
<rect x="894.675" y="-1417" width="23" height="1417" fill="#08519c"/>
<rect x="917.041" y="-1417" width="45" height="1417" fill="#2171b5"/>
<rect x="961.775" y="-1417" width="23" height="1417" fill="#08519c"/>
<rect x="984.142" y="-1417" width="45" height="1417" fill="#2171b5"/>
<rect x="1028.876" y="-1417" width="45" height="1417" fill="#6baed6"/>
<rect x="1073.609" y="-1417" width="23" height="1417" fill="#2171b5"/>
<rect x="1095.976" y="-1417" width="23" height="1417" fill="#4292c6"/>
<rect x="1118.343" y="-1417" width="23" height="1417" fill="#6baed6"/>
<rect x="1140.71" y="-1417" width="23" height="1417" fill="#4292c6"/>
<rect x="1163.077" y="-1417" width="23" height="1417" fill="#2171b5"/>
<rect x="1185.444" y="-1417" width="23" height="1417" fill="#08519c"/>
<rect x="1207.811" y="-1417" width="23" height="1417" fill="#08306b"/>
<rect x="1230.178" y="-1417" width="23" height="1417" fill="#2171b5"/>
<rect x="1252.544" y="-1417" width="23" height="1417" fill="#4292c6"/>
<rect x="1274.911" y="-1417" width="23" height="1417" fill="#08519c"/>
<rect x="1297.278" y="-1417" width="45" height="1417" fill="#08306b"/>
<rect x="1342.012" y="-1417" width="23" height="1417" fill="#08519c"/>
<rect x="1364.379" y="-1417" width="23" height="1417" fill="#08306b"/>
<rect x="1386.746" y="-1417" width="45" height="1417" fill="#08519c"/>
<rect x="1431.479" y="-1417" width="23" height="1417" fill="#4292c6"/>
<rect x="1453.846" y="-1417" width="23" height="1417" fill="#6baed6"/>
<rect x="1476.213" y="-1417" width="23" height="1417" fill="#2171b5"/>
<rect x="1498.58" y="-1417" width="23" height="1417" fill="#08519c"/>
<rect x="1520.947" y="-1417" width="23" height="1417" fill="#2171b5"/>
<rect x="1543.314" y="-1417" width="68" height="1417" fill="#4292c6"/>
<rect x="1610.414" y="-1417" width="23" height="1417" fill="#2171b5"/>
<rect x="1632.781" y="-1417" width="23" height="1417" fill="#4292c6"/>
<rect x="1655.148" y="-1417" width="23" height="1417" fill="#2171b5"/>
<rect x="1677.515" y="-1417" width="23" height="1417" fill="#4292c6"/>
<rect x="1699.882" y="-1417" width="23" height="1417" fill="#6baed6"/>
<rect x="1722.249" y="-1417" width="45" height="1417" fill="#4292c6"/>
<rect x="1766.982" y="-1417" width="23" height="1417" fill="#2171b5"/>
<rect x="1789.349" y="-1417" width="68" height="1417" fill="#6baed6"/>
<rect x="1856.45" y="-1417" width="23" height="1417" fill="#2171b5"/>
<rect x="1878.817" y="-1417" width="23" height="1417" fill="#6baed6"/>
<rect x="1901.183" y="-1417" width="23" height="1417" fill="#4292c6"/>
<rect x="1923.55" y="-1417" width="23" height="1417" fill="#6baed6"/>
<rect x="1945.917" y="-1417" width="68" height="1417" fill="#9ecae1"/>
<rect x="2013.018" y="-1417" width="23" height="1417" fill="#c6dbef"/>
<rect x="2035.385" y="-1417" width="23" height="1417" fill="#deebf7"/>
<rect x="2057.751" y="-1417" width="45" height="1417" fill="#c6dbef"/>
<rect x="2102.485" y="-1417" width="23" height="1417" fill="#deebf7"/>
<rect x="2124.852" y="-1417" width="23" height="1417" fill="#c6dbef"/>
<rect x="2147.219" y="-1417" width="45" height="1417" fill="#9ecae1"/>
<rect x="2191.953" y="-1417" width="45" height="1417" fill="#6baed6"/>
<rect x="2236.686" y="-1417" width="23" height="1417" fill="#4292c6"/>
<rect x="2259.053" y="-1417" width="45" height="1417" fill="#9ecae1"/>
<rect x="2303.787" y="-1417" width="23" height="1417" fill="#c6dbef"/>
<rect x="2326.154" y="-1417" width="23" height="1417" fill="#6baed6"/>
<rect x="2348.521" y="-1417" width="45" height="1417" fill="#4292c6"/>
<rect x="2393.254" y="-1417" width="23" height="1417" fill="#9ecae1"/>
<rect x="2415.621" y="-1417" width="23" height="1417" fill="#c6dbef"/>
<rect x="2437.988" y="-1417" width="45" height="1417" fill="#9ecae1"/>
<rect x="2482.722" y="-1417" width="68" height="1417" fill="#c6dbef"/>
<rect x="2549.822" y="-1417" width="23" height="1417" fill="#4292c6"/>
<rect x="2572.189" y="-1417" width="23" height="1417" fill="#6baed6"/>
<rect x="2594.556" y="-1417" width="45" height="1417" fill="#9ecae1"/>
<rect x="2639.29" y="-1417" width="23" height="1417" fill="#6baed6"/>
<rect x="2661.657" y="-1417" width="23" height="1417" fill="#c6dbef"/>
<rect x="2684.024" y="-1417" width="23" height="1417" fill="#9ecae1"/>
<rect x="2706.391" y="-1417" width="23" height="1417" fill="#6baed6"/>
<rect x="2728.757" y="-1417" width="23" height="1417" fill="#9ecae1"/>
<rect x="2751.124" y="-1417" width="23" height="1417" fill="#c6dbef"/>
<rect x="2773.491" y="-1417" width="45" height="1417" fill="#6baed6"/>
<rect x="2818.225" y="-1417" width="23" height="1417" fill="#4292c6"/>
<rect x="2840.592" y="-1417" width="23" height="1417" fill="#c6dbef"/>
<rect x="2862.959" y="-1417" width="23" height="1417" fill="#9ecae1"/>
<rect x="2885.325" y="-1417" width="23" height="1417" fill="#deebf7"/>
<rect x="2907.692" y="-1417" width="45" height="1417" fill="#fee0d2"/>
<rect x="2952.426" y="-1417" width="23" height="1417" fill="#c6dbef"/>
<rect x="2974.793" y="-1417" width="23" height="1417" fill="#fee0d2"/>
<rect x="2997.16" y="-1417" width="45" height="1417" fill="#c6dbef"/>
<rect x="3041.893" y="-1417" width="23" height="1417" fill="#deebf7"/>
<rect x="3064.26" y="-1417" width="23" height="1417" fill="#fee0d2"/>
<rect x="3086.627" y="-1417" width="23" height="1417" fill="#fcbba1"/>
<rect x="3108.994" y="-1417" width="23" height="1417" fill="#fee0d2"/>
<rect x="3131.361" y="-1417" width="45" height="1417" fill="#fcbba1"/>
<rect x="3176.095" y="-1417" width="45" height="1417" fill="#deebf7"/>
<rect x="3220.828" y="-1417" width="23" height="1417" fill="#fee0d2"/>
<rect x="3243.195" y="-1417" width="23" height="1417" fill="#fc9272"/>
<rect x="3265.562" y="-1417" width="23" height="1417" fill="#fee0d2"/>
<rect x="3287.929" y="-1417" width="23" height="1417" fill="#fc9272"/>
<rect x="3310.296" y="-1417" width="23" height="1417" fill="#fb6a4a"/>
<rect x="3332.663" y="-1417" width="45" height="1417" fill="#fcbba1"/>
<rect x="3377.396" y="-1417" width="23" height="1417" fill="#fc9272"/>
<rect x="3399.763" y="-1417" width="68" height="1417" fill="#fb6a4a"/>
<rect x="3466.864" y="-1417" width="45" height="1417" fill="#ef3b2c"/>
<rect x="3511.598" y="-1417" width="23" height="1417" fill="#fb6a4a"/>
<rect x="3533.964" y="-1417" width="23" height="1417" fill="#fc9272"/>
<rect x="3556.331" y="-1417" width="23" height="1417" fill="#fb6a4a"/>
<rect x="3578.698" y="-1417" width="23" height="1417" fill="#ef3b2c"/>
<rect x="3601.065" y="-1417" width="45" height="1417" fill="#fb6a4a"/>
<rect x="3645.799" y="-1417" width="45" height="1417" fill="#ef3b2c"/>
<rect x="3690.533" y="-1417" width="23" height="1417" fill="#a50f15"/>
<rect x="3712.899" y="-1417" width="23" height="1417" fill="#67000d"/>
<rect x="3735.266" y="-1417" width="23" height="1417" fill="#a50f15"/>
<rect x="3757.633" y="-1417" width="23" height="1417" fill="#cb181d"/>
</svg>